# xmcd CD database file
#
# Track frame offsets:
#	150
#	16642
#	32925
#	49967
#	66532
#	85442
#	104387
#	122582
#	141045
#	159527
#
# Disc length: 2424 seconds
#
# Revision: 0
# Processed by: cddbd v1.5.1PL0 Copyright (c) Steve Scherf et al.
# Submitted via: CDex 1.51
#
DISCID=8709760a
DTITLE=国安わたる - くわえ煙草に雨
DYEAR=1987
DGENRE=JPop
TTITLE0=五月の微風(かぜ)
TTITLE1=感傷
TTITLE2=くわえ煙草に雨
TTITLE3=せめてSAYONARAは
TTITLE4=BIRTHDAY
TTITLE5=秋はいつも
TTITLE6=雨に抱かれて
TTITLE7=潮騒
TTITLE8=RAINY STATION
TTITLE9=涙を信じて
EXTD=YEAR: 1987
EXTT0=
EXTT1=
EXTT2=
EXTT3=
EXTT4=
EXTT5=
EXTT6=
EXTT7=
EXTT8=
EXTT9=
PLAYORDER=
